<?xml version="1.0" encoding="utf-8" ?>
<svg xmlns="http://www.w3.org/2000/svg"
	xmlns:xlink="http://www.w3.org/1999/xlink" width="1024" height="1024">
	<!-- <path fill="#FDFDFD" d="M0 0L1024 0L1024 1024L0 1024L0 0Z"/> -->
	<circle r="512" cx="512" cy="512" fill="white" />
	<defs>
		<linearGradient id="gradient_0" gradientUnits="userSpaceOnUse" x1="868.7016" y1="756.263" x2="496.09286" y2="524.64673">
			<stop offset="0" stop-color="#3F8E64"/>
			<stop offset="1" stop-color="#4EAB76"/>
		</linearGradient>
	</defs>
	<path fill="url(#gradient_0)" d="M870.199 268.793C885.881 291.257 898.82 316.548 909.31 341.808C914.778 354.975 920.074 368.335 924.326 381.952C945.019 448.221 950.126 521.393 937.95 589.826C917.888 702.579 852.701 802.604 758.887 867.84C662.987 934.527 546.662 958.264 432.053 937.627C392.549 930.513 351.906 917.545 316.253 899.015C307.863 894.654 299.547 890.185 291.404 885.375C288.194 883.479 277.858 876.183 275.339 875.445C275.564 874.846 275.798 874.252 276.036 873.657C282.987 872.612 286.488 865.295 290.523 864.324C291.61 864.063 292.26 864.745 293.363 864.071L291.597 863.304L291.988 862.608C310.892 873.285 330.809 882.494 351.319 889.625C461.277 927.86 572.164 924.034 677.439 873.012C778.357 824.102 855.479 737.165 892.223 631.126C924.16 538.959 922.609 432.747 886.825 341.867C879.849 324.151 871.665 306.909 862.672 290.133C859.026 283.332 854.354 276.819 851.082 269.885L850.678 269.012C857.186 268.989 863.688 268.745 870.199 268.793Z"/>
	<path fill="#4DC073" d="M150.294 746.692C147.259 742.199 144.27 737.657 141.396 733.059C82.547 638.899 64.4926 521.708 89.414 413.745C115.289 301.652 185.35 203.778 282.96 142.957C381.036 81.8465 501.067 63.0024 613.429 89.1866C664.036 100.98 711.513 123.145 754.493 152.089C763.046 157.849 771.631 163.639 779.72 170.043C797.392 184.034 813.762 199.716 829.085 216.223C844.148 232.449 858.474 249.967 870.199 268.793C863.688 268.745 857.186 268.989 850.678 269.012L851.082 269.885C854.354 276.819 859.026 283.332 862.672 290.133C871.665 306.909 879.849 324.151 886.825 341.867C922.609 432.747 924.16 538.959 892.223 631.126C855.479 737.165 778.357 824.102 677.439 873.012C572.164 924.034 461.277 927.86 351.319 889.625C330.809 882.494 310.892 873.285 291.988 862.608L291.597 863.304L293.363 864.071C292.26 864.745 291.61 864.063 290.523 864.324C286.488 865.295 282.987 872.612 276.036 873.657C275.798 874.252 275.564 874.846 275.339 875.445C271.083 878.456 265.426 880.506 260.626 882.544C233.166 894.206 203.823 900.86 174.23 904.163C176.389 899.85 178.43 895.417 180.765 891.201C209.211 879.619 232.793 860.981 254.042 839.202L294.956 796.158C324.873 814.782 356.774 828.427 390.703 837.846C483.98 863.74 582.404 851.17 666.599 803.538C749.401 756.695 810.076 677.27 835.393 585.743C858.447 502.397 852.394 413.3 816.761 334.348C811.418 322.509 805.053 311.244 798.655 299.955C814.191 288.562 831.056 273.437 850.166 268.798C847.385 265.933 845.035 262.132 842.635 258.922C836.825 251.151 831.158 243.273 824.911 235.842C800.964 207.357 771.925 181.661 741.13 160.817C649.579 99.8424 536.346 78.1971 428.509 99.9081C320.417 121.671 223.263 186.101 162.296 278.158C99.7031 372.671 78.9147 485.445 101.542 596.239C109.67 636.037 125.066 675.638 145.628 710.657C148.697 715.885 152.119 722.861 156.298 727.226L156.767 727.967C164.459 739.33 172.908 750.339 181.647 760.916C194.449 776.409 212.136 789.997 207.85 812.681C207.745 813.235 207.558 813.679 207.275 814.163C186.914 797.237 164.772 768.711 150.294 746.692Z"/>
	<path fill="#D0E3D5" d="M156.298 727.226C152.119 722.861 148.697 715.885 145.628 710.657C125.066 675.638 109.67 636.037 101.542 596.239C78.9147 485.445 99.7031 372.671 162.296 278.158C223.263 186.101 320.417 121.671 428.509 99.9081C536.346 78.1971 649.579 99.8424 741.13 160.817C717.23 162.897 694.138 168.499 671.895 177.525L671.602 177.454C662.27 181.36 653.035 185.294 644.112 190.075C593.711 217.079 547.875 256.962 506.731 296.366C489.947 312.44 473.459 328.715 457.641 345.751C440.774 324.945 415.844 293.568 387.534 290.809C368.835 288.986 357.301 298.458 342.921 308.57C335.223 313.982 327.367 319.355 320.115 325.355C302.21 340.166 292.772 360.95 290.732 383.829C287.932 415.239 298.319 455.907 310.869 484.647C303.879 493.871 295.868 502.535 288.638 511.626C266.761 539.138 245.202 566.868 225.29 595.849C214.257 611.906 203.65 628.139 193.731 644.912C190.055 651.129 186.46 657.394 182.897 663.676C181.089 666.864 179.435 670.485 177.255 673.397L177.144 673.743C168.261 691.261 161.754 708.373 156.298 727.226Z"/>
	<path fill="#FDFDFD" d="M488.164 148.699C493.113 148.655 498.088 149.303 502.439 151.838C505.847 153.825 508.385 156.817 509.379 160.674C510.351 164.447 509.752 168.425 507.67 171.721C504.164 177.27 498.024 179.522 491.914 180.763C486.615 181.227 480.985 180.441 476.543 177.321C473.319 175.056 471.234 171.856 470.629 167.952C469.968 163.687 470.909 159.028 473.607 155.605C477.219 151.02 482.639 149.436 488.164 148.699Z"/>
	<path fill="#FDFDFD" d="M419.393 156.207C426.889 155.364 436.899 155.283 443.886 158.35C447.511 159.941 450.657 162.646 452.055 166.437C454.546 173.186 449.134 179.747 444.252 183.798C432.181 193.814 406.516 203.349 391.25 210.945C370.923 221.06 351.126 232.532 332.428 245.422C313.538 258.444 295.426 272.81 279.118 288.981C244.66 323.149 216.596 366.32 198.026 411.06C193.956 420.868 190.193 430.898 186.916 440.997C183.732 450.81 181.096 460.731 177.011 470.233C176.185 471.722 175.349 473.285 174.371 474.682C172.689 477.083 170.251 479.493 167.217 479.912C164.933 480.227 162.372 479.034 160.607 477.675C155.366 473.643 153.496 465.649 152.834 459.36C151.41 445.854 153.996 431.935 156.492 418.699C162.653 386.019 175.815 349.318 192.63 320.556C202.148 304.276 213.425 289.231 225.284 274.607C263.25 227.79 313.031 191.301 369.283 169.623C385.321 163.442 402.247 157.994 419.393 156.207Z"/>
	<path fill="#99D4AD" d="M741.13 160.817C771.925 181.661 800.964 207.357 824.911 235.842C831.158 243.273 836.825 251.151 842.635 258.922C845.035 262.132 847.385 265.933 850.166 268.798C831.056 273.437 814.191 288.562 798.655 299.955C805.053 311.244 811.418 322.509 816.761 334.348C852.394 413.3 858.447 502.397 835.393 585.743C810.076 677.27 749.401 756.695 666.599 803.538C582.404 851.17 483.98 863.74 390.703 837.846C356.774 828.427 324.873 814.782 294.956 796.158L254.042 839.202C232.793 860.981 209.211 879.619 180.765 891.201C190.659 870.141 199.303 849.896 204.892 827.232C205.846 823.363 207.46 818.11 207.275 814.163C207.558 813.679 207.745 813.235 207.85 812.681C212.136 789.997 194.449 776.409 181.647 760.916C172.908 750.339 164.459 739.33 156.767 727.967L156.298 727.226C161.754 708.373 168.261 691.261 177.144 673.743L177.255 673.397C179.435 670.485 181.089 666.864 182.897 663.676C186.46 657.394 190.055 651.129 193.731 644.912C203.65 628.139 214.257 611.906 225.29 595.849C245.202 566.868 266.761 539.138 288.638 511.626C295.868 502.535 303.879 493.871 310.869 484.647C298.319 455.907 287.932 415.239 290.732 383.829C292.772 360.95 302.21 340.166 320.115 325.355C327.367 319.355 335.223 313.982 342.921 308.57C357.301 298.458 368.835 288.986 387.534 290.809C415.844 293.568 440.774 324.945 457.641 345.751C473.459 328.715 489.947 312.44 506.731 296.366C547.875 256.962 593.711 217.079 644.112 190.075C653.035 185.294 662.27 181.36 671.602 177.454L671.895 177.525C694.138 168.499 717.23 162.897 741.13 160.817Z"/>
	<path fill="#049A41" d="M508.473 577.842C524.06 588.7 542.305 596.588 561.673 593.225C577.201 590.528 585.379 580.472 595.523 569.491C619.378 543.667 636.228 534.81 667.534 556.399C688.33 570.739 727.786 607.676 732.16 632.79C735.604 652.568 728.411 671.549 717.017 687.478C699.415 712.088 678.939 726.57 648.468 731.403C628.842 734.515 607.191 733.07 587.9 728.421C545.401 718.179 493.431 687.785 458.114 661.968C451.696 657.276 445.412 652.38 439.125 647.513C462.639 624.68 484.85 600.584 508.473 577.842Z"/>
	<path fill="#4DC073" d="M310.869 484.647C298.319 455.907 287.932 415.239 290.732 383.829C292.772 360.95 302.21 340.166 320.115 325.355C327.367 319.355 335.223 313.982 342.921 308.57C357.301 298.458 368.835 288.986 387.534 290.809C415.844 293.568 440.774 324.945 457.641 345.751C469.604 361.308 480.355 376.439 477.678 397.127C475.247 415.918 466.898 421.284 454.992 433.691C449.34 439.58 444.203 446.427 439.687 453.229C423.748 477.238 430.501 491.965 446.946 513.561C461.924 533.231 478.174 551.841 496.847 568.081C500.504 571.261 504.393 574.949 508.462 577.567L508.473 577.842C484.85 600.584 462.639 624.68 439.125 647.513L438.818 647.383C426.671 636.87 414.513 626.583 402.974 615.376C377.466 590.603 351.783 559.545 333.462 528.925C324.939 514.68 317.635 499.792 310.869 484.647Z"/>
</svg>
